# xmcd CD database file
#
# Track frame offsets:
#	150
#	13571
#	26726
#	40383
#	53810
#	68237
#	81742
#	95219
#	107880
#	121292
#	134345
#	147829
#	159492
#	171668
#	184372
#	196765
#	208852
#	223419
#	236532
#	250912
#
# Disc length: 3514 seconds
#
# Revision: 0
# Processed by: cddbd v1.5.2PL0 Copyright (c) Steve Scherf et al.
# Submitted via: CDex 1.51
#
DISCID=3b0db814
DTITLE=Bessie Smith - i ain't gonna play no second fiddle - Vol 3
DYEAR=1999
DGENRE=Blues
TTITLE0=Them's Graveyard Words
TTITLE1=Hot Spring Blues
TTITLE2=Sweet Mistreater
TTITLE3=Lock And Key
TTITLE4=Mean Old Bed Bug Blues
TTITLE5=A Good Man Is Hard To Find
TTITLE6=Homeless Blues
TTITLE7=Looking For My Man Blues
TTITLE8=Dyin' By The Hour
TTITLE9=Foolish Man Blues
TTITLE10=Thinking Blues
TTITLE11=Pickpocket Blues
TTITLE12=I Used To Be Your Sweet Mama
TTITLE13=I'd Rather Be Dead And Buried In My Grave
TTITLE14=Standin' In The Rain Blues
TTITLE15=It Won't Be You
TTITLE16=Spider Man Blues
TTITLE17=Empty Bed Blues (Part 1)
TTITLE18=Empty Bed Blues (Part 2)
TTITLE19=Put It Right Here (Or Keep It Out There)
EXTD=YEAR: 1999
EXTT0=
EXTT1=
EXTT2=
EXTT3=
EXTT4=
EXTT5=
EXTT6=
EXTT7=
EXTT8=
EXTT9=
EXTT10=
EXTT11=
EXTT12=
EXTT13=
EXTT14=
EXTT15=
EXTT16=
EXTT17=
EXTT18=
EXTT19=
PLAYORDER=
